<?xml version="1.0" encoding="UTF-8"?>
<!DOCTYPE svg PUBLIC "-//W3C//DTD SVG 1.1//EN" "http://www.w3.org/Graphics/SVG/1.1/DTD/svg11.dtd">
<svg xmlns="http://www.w3.org/2000/svg" version="1.1" width="300px" height="300px" style="shape-rendering:geometricPrecision; text-rendering:geometricPrecision; image-rendering:optimizeQuality; fill-rule:evenodd; clip-rule:evenodd" xmlns:xlink="http://www.w3.org/1999/xlink">
<g><path style="opacity:0.997" fill="#fcde6d" d="M 133.5,-0.5 C 144.5,-0.5 155.5,-0.5 166.5,-0.5C 206.555,4.77792 239.721,22.7779 266,53.5C 271.855,60.5482 276.688,68.2149 280.5,76.5C 268.925,63.2468 254.259,57.7468 236.5,60C 211.618,68.2203 200.451,85.3869 203,111.5C 208.541,131.879 221.708,143.546 242.5,146.5C 270.777,145.685 286.444,131.185 289.5,103C 288.979,98.0305 287.979,93.1971 286.5,88.5C 289.462,94.1968 291.962,100.197 294,106.5C 296.028,114.929 297.861,123.262 299.5,131.5C 299.5,143.5 299.5,155.5 299.5,167.5C 295.203,196.43 284.036,222.43 266,245.5C 259.244,252.761 252.078,259.428 244.5,265.5C 245.85,264.35 245.684,263.683 244,263.5C 178.563,289.398 120.896,277.731 71,228.5C 28.8193,176.916 21.1526,120.583 48,59.5C 56.7447,43.5885 67.578,29.2552 80.5,16.5C 88.0283,12.2432 96.0283,8.74315 104.5,6C 114.195,3.32272 123.862,1.15605 133.5,-0.5 Z"/></g>
<g><path style="opacity:0.996" fill="#fcc56b" d="M 80.5,16.5 C 67.578,29.2552 56.7447,43.5885 48,59.5C 21.1526,120.583 28.8193,176.916 71,228.5C 120.896,277.731 178.563,289.398 244,263.5C 245.684,263.683 245.85,264.35 244.5,265.5C 221.623,284.77 195.29,296.103 165.5,299.5C 154.5,299.5 143.5,299.5 132.5,299.5C 74.9683,290.636 34.1349,259.636 10,206.5C 5.05737,193.06 1.55737,179.393 -0.5,165.5C -0.5,154.833 -0.5,144.167 -0.5,133.5C 6.98323,80.8303 33.9832,41.8303 80.5,16.5 Z"/></g>
<g><path style="opacity:1" fill="#fcea87" d="M 153.5,20.5 C 168.55,18.8913 182.216,22.3913 194.5,31C 206.358,42.0116 205.025,50.6783 190.5,57C 172.065,60.1884 156.565,55.0218 144,41.5C 140.913,36.4458 140.913,31.4458 144,26.5C 147.147,24.3503 150.313,22.3503 153.5,20.5 Z"/></g>
<g><path style="opacity:1" fill="#fefefd" d="M 114.5,59.5 C 140.444,57.3605 157.61,68.3605 166,92.5C 169.934,118.817 159.434,136.317 134.5,145C 106.931,149.437 89.0972,138.271 81,111.5C 78.659,85.3609 89.8257,68.0276 114.5,59.5 Z"/></g>
<g><path style="opacity:1" fill="#fefefd" d="M 280.5,76.5 C 283.54,79.9136 285.54,83.9136 286.5,88.5C 287.979,93.1971 288.979,98.0305 289.5,103C 286.444,131.185 270.777,145.685 242.5,146.5C 221.708,143.546 208.541,131.879 203,111.5C 200.451,85.3869 211.618,68.2203 236.5,60C 254.259,57.7468 268.925,63.2468 280.5,76.5 Z"/></g>
<g><path style="opacity:1" fill="#821e4f" d="M 130.5,90.5 C 143.145,93.5986 146.145,100.765 139.5,112C 128.643,117.938 121.643,114.938 118.5,103C 119.68,95.9886 123.68,91.8219 130.5,90.5 Z"/></g>
<g><path style="opacity:1" fill="#832151" d="M 251.5,90.5 C 263.222,91.0482 268.055,97.0482 266,108.5C 259.627,116.686 252.627,117.352 245,110.5C 240.589,101.663 242.755,94.9964 251.5,90.5 Z"/></g>
<g><path style="opacity:1" fill="#f9a87f" d="M 255.5,160.5 C 270.639,159.043 279.305,165.71 281.5,180.5C 268.167,180.5 254.833,180.5 241.5,180.5C 241.884,170.79 246.551,164.123 255.5,160.5 Z"/></g>
<g><path style="opacity:1" fill="#f9a97f" d="M 78.5,163.5 C 94.3893,161.248 103.389,167.915 105.5,183.5C 92.1667,183.5 78.8333,183.5 65.5,183.5C 65.2628,179.59 66.0961,175.923 68,172.5C 71.0781,168.915 74.5781,165.915 78.5,163.5 Z"/></g>
<g><path style="opacity:1" fill="#821e4c" d="M 145.5,197.5 C 168.169,197.333 190.836,197.5 213.5,198C 216.797,198.575 218.464,200.575 218.5,204C 218.357,206.151 217.357,207.818 215.5,209C 191.833,209.667 168.167,209.667 144.5,209C 140.434,204.819 140.767,200.986 145.5,197.5 Z"/></g>
</svg>
